<svg fill="none" height="60" viewBox="0 0 60 60" width="60" xmlns="http://www.w3.org/2000/svg"><g fill="#0a111d"><path d="m50.2073 49.9199v-2.9199h-2.9968v2.9199h-1.8782v2.4933h1.8782v7.3364h2.9968v-7.3364h1.7928v-2.4933z"/><path d="m44.1431 52.4132c-.6557.0772-2.1819.1507-3.0783 1.3753v5.9611h-2.9635v-9.7893h2.9635v.7355c.6742-.5737 1.6891-.9083 3.0783-.7723z"/><path d="m36.3345 49.9456v9.8041h-2.9634v-.5517c-.8467.5337-1.831.8121-2.8338.8017-2.7264 0-4.9194-2.2984-4.9194-5.1484s2.193-5.1484 4.9194-5.1484c1.0028-.0104 1.9871.2681 2.8338.8017v-.5553zm-2.9634 6.4098v-3.0008c-.2631-.3668-.6163-.6607-1.0261-.8538s-.8625-.279-1.3151-.2494c-.6809.0253-1.3254.3117-1.7982.7989-.4727.4873-.7368 1.1374-.7368 1.8139s.2641 1.3266.7368 1.8138c.4728.4873 1.1173.7736 1.7982.799.4543.0272.908-.0616 1.3178-.258.4098-.1963.7622-.4937 1.0234-.8636z"/><path d="m24.4176 59.7496v-5.3286c0-3.0486-1.7892-4.7218-4.4489-4.7365-.9335-.0092-1.8336.3445-2.5078.9855-.1601.1514-.3889.4065-.6467.7101-.7736-1.1009-2.0328-1.6824-3.58-1.6846-.4273-.005-.8507.0802-1.2422.2502-.3915.1699-.7421.4206-1.0285.7353v-.7354h-2.9635v9.804h2.9635v-6.1781c.1583-.3529.4107-.6562.7299-.8772s.6931-.3513 1.0815-.3768c1.2525 0 1.845.6495 1.9707 1.8938v5.5383h2.9635v-6.1781c.157-.3531.4085-.6567.7272-.8778.3188-.2211.6925-.3512 1.0805-.3762 1.4298 0 2.0003.8422 2.0003 2.4455v4.9866z"/><path d="m52 43.9926h-6.8985l-4.4818-16.6422-9.6297 16.6422h-7.7016l14.8887-25.7578-2.3944-8.94558-20.0774 34.71078h-7.7053l25.44-44h6.7467l2.9533 10.9335h6.9614l-4.7519 8.2472z"/></g></svg>