<svg xmlns="http://www.w3.org/2000/svg" xml:space="preserve" viewBox="57.8 124.5 468.4 119.5">
  <path fill="#000" d="M174 148.1v71.6h-14.6v-71.6H174zM233.5 171.4v48.4c0 15-11.7 24.2-26 24.2-13.8 0-24.1-8.6-25.1-20.7l14.5.1c.6 5.1 5.1 7.4 11.1 7.4 5.6 0 10.9-3 10.9-10.9v-6.1c-3.7 2.4-8.5 3.8-13.8 3.8-13.3 0-24-10.8-24-23.2 0-14.4 10.7-24.1 24-24.1 5.3 0 10.1 1.4 13.8 3.8v-2.6l14.6-.1zm-14.6 28.5v-11.8c-3-4.3-7.1-5.8-11.2-5.8-7.2 0-12.1 4.8-12.1 12.1 0 5.4 5 11.2 12.1 11.2 4.1 0 8.2-1.4 11.2-5.7zM291.7 194.9c0 14.9-11 25.5-25.8 25.5-14.9 0-25.9-10.6-25.9-25.5 0-14.8 11-25.6 25.9-25.6 14.8 0 25.8 10.8 25.8 25.6zm-14.1 0c0-7-4.6-12.7-11.7-12.7-7.2 0-11.8 5.7-11.8 12.7 0 7.2 4.6 12.6 11.8 12.6 7.1 0 11.7-5.4 11.7-12.6zM382.2 171.5v48.1l-14.3.1V217c-3.7 2.4-8.5 3.9-13.8 3.9-13.3 0-24-11.3-24-25.2 0-14 10.7-25.3 24-25.3 5.3 0 10.1 1.5 13.8 3.9v-2.7l14.3-.1zM367.9 203v-14.7c-3-4.3-7.2-5.5-11.4-5.5-7.3 0-12.4 5.9-12.4 12.9 0 6.9 5.1 12.8 12.4 12.8 4.2-.1 8.4-1.3 11.4-5.5zM441.1 193.5v26.1H427v-24.4c0-7.9-3.9-12-10.9-12-3.6 0-7.7 2.1-11.1 6.1v30.3h-14.4v-48.1H405v3.6c3.9-3.1 8.5-4.8 13.9-4.8 12.8 0 22.2 9.1 22.2 23.2zM513.9 149.9h-3.6v8.5h-2.1v-8.5h-3.6V148h9.2v1.9zM526.2 158.4h-2.1v-5.9l-2.7 4.3h-1.3l-2.8-4.4v5.9h-2.1V148h1.5l4 6.3 4-6.3h1.5v10.4zM152.7 219.6h-14.9l-9.6-36-20.8 36H90.8l32.1-55.7-5.2-19.3-43.3 75H57.8l54.9-95.1h14.5l6.4 23.6h15L138.4 166zM499.1 148.1v71.6h-14.6V217c-3.7 2.4-8.5 3.9-13.8 3.9-13.3 0-24-11.3-24-25.3 0-13.9 10.7-25.2 24-25.2 5.3 0 10.1 1.5 13.8 3.9v-26.2h14.6zM484.5 203v-14.8c-3-4.3-7.3-5.5-11.5-5.5-7.4 0-12.5 5.9-12.5 12.9 0 7.1 5.1 13 12.5 13 4.3-.1 8.5-1.3 11.5-5.6zM327.5 183.7c-3.2.4-10.6.8-15 6.8v29.2h-14.4v-48h14.4v3.6c3.3-2.8 8.2-4.5 15-3.8"/>
</svg>