<svg xmlns="http://www.w3.org/2000/svg" xml:space="preserve" viewBox="0 0 310 310">
  <path d="M81.703 165.106h33.981V305c0 2.762 2.238 5 5 5H178.3c2.762 0 5-2.238 5-5V165.765h39.064c2.54 0 4.677-1.906 4.967-4.429l5.933-51.502c.163-1.417-.286-2.836-1.234-3.899-.949-1.064-2.307-1.673-3.732-1.673h-44.996V71.978c0-9.732 5.24-14.667 15.576-14.667h29.42c2.762 0 5-2.239 5-5V5.037c0-2.762-2.238-5-5-5h-40.545c-.286-.014-.921-.037-1.857-.037-7.035 0-31.488 1.381-50.804 19.151-21.402 19.692-18.427 43.27-17.716 47.358v37.752H81.703c-2.762 0-5 2.238-5 5v50.844c0 2.762 2.238 5.001 5 5.001z" fill="#FFFFFF"/>
</svg>