<svg xmlns="http://www.w3.org/2000/svg" viewBox="0 0 152.407 108">
  <path fill="none" d="M0 0h152.407v108H0z"/>
  <path fill="#ff5f00" d="M60.4117 25.6968h31.5v56.6064h-31.5z"/>
  <path fill="#eb001b" d="M62.4119 54a35.9375 35.9375 0 0 1 13.7499-28.3032 36 36 0 1 0 0 56.6064A35.938 35.938 0 0 1 62.4119 54Z"/>
  <path fill="#f79e1b" d="M134.407 54a35.99867 35.99867 0 0 1-58.2452 28.3032 36.00518 36.00518 0 0 0 0-56.6064A35.99867 35.99867 0 0 1 134.407 54ZM130.9724 76.3077v-1.1589h.4673v-.2361h-1.1901v.2361h.4675v1.1589Zm2.3105 0v-1.3973h-.3648l-.41959.9611-.41971-.9611h-.365v1.3973h.2576v-1.054l.3935.9087h.2671l.39351-.911v1.0563Z"/>
</svg>
