<svg width="28" height="28" viewBox="0 0 28 28" fill="none" xmlns="http://www.w3.org/2000/svg">
<path fill-rule="evenodd" clip-rule="evenodd" d="M0 14C0 6.26801 6.26801 0 14 0C21.732 0 28 6.26801 28 14C28 21.732 21.732 28 14 28C6.26801 28 0 21.732 0 14ZM13.5807 11.3794L13.6101 11.8638L13.1204 11.8045C11.3382 11.5771 9.78113 10.806 8.45911 9.51085L7.81279 8.86824L7.64632 9.34278C7.29378 10.4006 7.51901 11.5178 8.25347 12.2691C8.64517 12.6844 8.55704 12.7437 7.88134 12.4965C7.64632 12.4174 7.44067 12.3581 7.42109 12.3878C7.35254 12.457 7.58756 13.3566 7.77362 13.7126C8.02823 14.2069 8.54725 14.6913 9.11522 14.978L9.59507 15.2054L9.02709 15.2153C8.4787 15.2153 8.45911 15.2252 8.51787 15.4328C8.71372 16.0754 9.48735 16.7576 10.3491 17.0541L10.9563 17.2618L10.4274 17.5781C9.64403 18.0329 8.72352 18.2899 7.803 18.3097C7.36233 18.3196 7 18.3591 7 18.3888C7 18.4877 8.19471 19.0413 8.88999 19.2588C10.9758 19.9014 13.4534 19.6246 15.314 18.5272C16.636 17.7462 17.958 16.194 18.575 14.6913C18.9079 13.8905 19.2409 12.4273 19.2409 11.7254C19.2409 11.2706 19.2703 11.2113 19.8187 10.6676C20.1418 10.3512 20.4454 10.0052 20.5041 9.90631C20.6021 9.71847 20.5923 9.71847 20.0929 9.88653C19.2605 10.1831 19.143 10.1436 19.5543 9.69869C19.8578 9.38233 20.2202 8.80892 20.2202 8.64085C20.2202 8.61119 20.0733 8.66063 19.9068 8.7496C19.7305 8.84847 19.3388 8.99676 19.045 9.08574L18.5162 9.25381L18.0364 8.92756C17.772 8.7496 17.3999 8.55188 17.204 8.49256C16.7046 8.35415 15.9407 8.37392 15.4903 8.5321C14.2662 8.97699 13.4926 10.1238 13.5807 11.3794Z" fill="#03102A"/>
</svg>
