<?xml version="1.0" encoding="UTF-8" standalone="no"?>
<svg
   xmlns:dc="http://purl.org/dc/elements/1.1/"
   xmlns:cc="http://creativecommons.org/ns#"
   xmlns:rdf="http://www.w3.org/1999/02/22-rdf-syntax-ns#"
   xmlns:svg="http://www.w3.org/2000/svg"
   xmlns="http://www.w3.org/2000/svg"
   xmlns:sodipodi="http://sodipodi.sourceforge.net/DTD/sodipodi-0.dtd"
   xmlns:inkscape="http://www.inkscape.org/namespaces/inkscape"
   version="1.1"
   id="Layer_1"
   x="0px"
   y="0px"
   viewBox="0 0 3384.54 2077.85"
   style="enable-background:new 0 0 3384.54 2077.85;"
   xml:space="preserve"
   sodipodi:docname="visa.svg"
   inkscape:version="1.0.1 (c497b03c, 2020-09-10)"><metadata
   id="metadata853"><rdf:RDF><cc:Work
       rdf:about=""><dc:format>image/svg+xml</dc:format><dc:type
         rdf:resource="http://purl.org/dc/dcmitype/StillImage" /><dc:title></dc:title></cc:Work></rdf:RDF></metadata><defs
   id="defs851" /><sodipodi:namedview
   pagecolor="#ffffff"
   bordercolor="#666666"
   borderopacity="1"
   objecttolerance="10"
   gridtolerance="10"
   guidetolerance="10"
   inkscape:pageopacity="0"
   inkscape:pageshadow="2"
   inkscape:window-width="776"
   inkscape:window-height="480"
   id="namedview849"
   showgrid="false"
   inkscape:zoom="0.32382539"
   inkscape:cx="1692.27"
   inkscape:cy="791.87833"
   inkscape:window-x="0"
   inkscape:window-y="25"
   inkscape:window-maximized="0"
   inkscape:current-layer="Layer_1" />
<style
   type="text/css"
   id="style844">
	.st0{fill:#1434CB;}
</style>
<path
   class="st0"
   d="M1461.26,739.84l-251.37,599.74h-164l-123.7-478.62c-7.51-29.48-14.04-40.28-36.88-52.7  c-37.29-20.23-98.87-39.21-153.05-50.99l3.68-17.43h263.99c33.65,0,63.9,22.4,71.54,61.15l65.33,347.04l161.46-408.2H1461.26z   M2103.84,1143.77c0.66-158.29-218.88-167.01-217.37-237.72c0.47-21.52,20.96-44.4,65.81-50.24c22.23-2.91,83.48-5.13,152.95,26.84  l27.25-127.18c-37.33-13.55-85.36-26.59-145.12-26.59c-153.35,0-261.27,81.52-262.18,198.25c-0.99,86.34,77.03,134.52,135.81,163.21  c60.47,29.38,80.76,48.26,80.53,74.54c-0.43,40.23-48.23,57.99-92.9,58.69c-77.98,1.2-123.23-21.1-159.3-37.87l-28.12,131.39  c36.25,16.63,103.16,31.14,172.53,31.87C1996.72,1348.96,2103.34,1268.45,2103.84,1143.77 M2508.78,1339.58h143.49l-125.25-599.74  h-132.44c-29.78,0-54.9,17.34-66.02,44l-232.81,555.74h162.91L2291,1250h199.05L2508.78,1339.58z M2335.67,1127.08l81.66-225.18  l47,225.18H2335.67z M1682.93,739.84l-128.29,599.74H1399.5l128.34-599.74H1682.93z"
   id="path846" />
</svg>
