<svg width="28" height="28" viewBox="0 0 28 28" fill="none" xmlns="http://www.w3.org/2000/svg">
<path fill-rule="evenodd" clip-rule="evenodd" d="M14 28C6.26801 28 0 21.732 0 14C0 6.26801 6.26801 0 14 0C21.732 0 28 6.26801 28 14C28 21.732 21.732 28 14 28ZM18.0575 13.9552C17.8241 13.8835 17.6639 13.8372 17.7852 13.5272C18.0507 12.8539 18.0781 12.2732 17.7898 11.8568C17.252 11.0794 15.7784 11.1211 14.0896 11.836C14.0896 11.836 13.5587 12.0696 13.696 11.6463C13.9546 10.8018 13.9157 10.0962 13.513 9.68666C12.5976 8.75892 10.1606 9.72137 8.07137 11.8337C6.50846 13.4138 5.6 15.0912 5.6 16.5418C5.6 19.3134 9.11712 21 12.5564 21C17.0667 21 20.0667 18.351 20.0667 16.2479C20.069 14.9755 19.0095 14.2536 18.0575 13.9552ZM21.2191 8.88912C20.082 7.70306 18.405 7.25155 16.857 7.56154C16.4986 7.63342 16.2717 7.96588 16.3481 8.30058C16.4246 8.63753 16.7758 8.85093 17.1341 8.77905C18.2354 8.55891 19.4274 8.88013 20.2349 9.72251C21.0423 10.5649 21.2621 11.7128 20.9157 12.7191C20.8034 13.0471 20.9945 13.3975 21.3433 13.5031C21.6921 13.6087 22.0648 13.429 22.177 13.1032V13.101C22.6644 11.688 22.3562 10.0729 21.2191 8.88912ZM19.4711 10.5251C18.8963 9.91997 18.049 9.68922 17.2686 9.84933C16.949 9.9129 16.7458 10.2143 16.8127 10.518C16.8821 10.8217 17.1967 11.0148 17.5139 10.9489C17.8954 10.8712 18.3116 10.9842 18.5916 11.2785C18.8715 11.5752 18.9483 11.9778 18.8269 12.331C18.7278 12.6253 18.8963 12.9432 19.2085 13.0397C19.5206 13.1339 19.8526 12.9738 19.9542 12.6771C20.1995 11.9543 20.0459 11.1302 19.4711 10.5251Z" fill="#03102A"/>
<path fill-rule="evenodd" clip-rule="evenodd" d="M12.5679 20.0052C9.82193 20.2805 7.45124 19.0242 7.27275 17.2034C7.09427 15.3804 9.17662 13.6822 11.9203 13.4069C14.6663 13.1316 17.0369 14.3878 17.2131 16.2086C17.3939 18.0317 15.3116 19.7322 12.5679 20.0052ZM13.1428 15.0253C11.7514 14.6788 10.1797 15.3416 9.57538 16.5114C8.95887 17.7045 9.55588 19.0301 10.9595 19.4627C12.4167 19.9115 14.1321 19.2231 14.7292 17.937C15.3189 16.6765 14.5829 15.3811 13.1428 15.0253Z" fill="black"/>
<path fill-rule="evenodd" clip-rule="evenodd" d="M13.0137 16.9323C12.9113 17.0998 12.6847 17.1789 12.5093 17.1091C12.3338 17.0416 12.2802 16.8533 12.3801 16.6905C12.4825 16.5277 12.6993 16.4486 12.8723 16.5137C13.0478 16.5742 13.1111 16.7626 13.0137 16.9323Z" fill="black"/>
<path fill-rule="evenodd" clip-rule="evenodd" d="M12.0804 18.0719C11.7977 18.5022 11.191 18.6905 10.7353 18.4929C10.2869 18.2975 10.1529 17.7975 10.4356 17.3765C10.7158 16.9579 11.3006 16.7719 11.7538 16.9533C12.212 17.1416 12.3582 17.637 12.0804 18.0719Z" fill="black"/>
</svg>
