<svg xmlns="http://www.w3.org/2000/svg" viewBox="0 0 2011.126 410">
      <g id="Group_1" data-name="Group 1" transform="translate(-2565.999 -620.5)">
        <path id="Path_1" data-name="Path 1" d="M0,410H2009.55" transform="translate(2566 620)" fill="none"
          stroke="currentColor" stroke-miterlimit="10" stroke-width="1" />
        <path id="Path_2" data-name="Path 2"
          d="M0,398.528c339.2.085,678.223-1.966,1017.33-4.287,146.73-1.01,294.46-.678,441.17,1.45,183.65,2.66,367.38.154,550.99,2.837"
          transform="translate(2566 620)" fill="none" stroke="currentColor" stroke-miterlimit="10" stroke-width="1" />
        <path id="Path_3" data-name="Path 3"
          d="M0,387.226c96.109,0,192.247.408,288.342.208,85.881-.177,171.566-4.025,257.418-4.688,159.927-1.233,319.825.2,479.74-1.256,141.94-1.295,285.34-4.726,427.18.509,82.67,3.083,164.49,4.487,247.23,5.759,103.27,1.588,206.41-2.722,309.64-.532"
          transform="translate(2566 620)" fill="none" stroke="currentColor" stroke-miterlimit="10" stroke-width="1" />
        <path id="Path_4" data-name="Path 4"
          d="M0,376.077c94.728,0,189.707.879,284.407-.069,88.992-.894,177.468-7.162,266.391-8.774,160.233-2.906,319.211,5.4,479.282,3.917,140.85-1.28,279.7-11.673,420.7-2.375,82.42,5.436,162.29,9.691,245.31,10.933,104.66,1.542,208.81-5.96,313.46-3.632"
          transform="translate(2566 620)" fill="none" stroke="currentColor" stroke-miterlimit="10" stroke-width="1" />
        <path id="Path_5" data-name="Path 5"
          d="M0,365.145c93.011,0,186.707,1.4,279.648-.532s184.558-10.84,277.22-13.716c84.234-2.613,167.281-1.912,251.068,3.778,75.093,5.1,148.037,8.789,223.744,8.234,66.36-.493,128.53-6.06,194.06-11.248,75-5.945,152.21-3.169,226.51,4.4,81.78,8.342,158.91,16.321,242.41,17.231,105.34,1.156,209.49-10.146,314.89-8.149"
          transform="translate(2566 620)" fill="none" stroke="currentColor" stroke-miterlimit="10" stroke-width="1" />
        <path id="Path_6" data-name="Path 6"
          d="M0,354.367c91,0,183.385,1.889,274.234-1.134,97.072-3.222,192.5-14.895,289.361-19.274a1615.782,1615.782,0,0,1,248.751,7.756c73.084,7.879,143.739,14.918,218.444,14.6,69.17-.3,131.76-9.977,198.91-17.8,76.23-8.882,151.66-5.513,226.72,5.258,80.45,11.564,154.72,24.023,238.8,24.355,105.52.424,208.63-15.049,314.33-13.747"
          transform="translate(2566 620)" fill="none" stroke="currentColor" stroke-miterlimit="10" stroke-width="1" />
        <path id="Path_7" data-name="Path 7"
          d="M0,343.758c88.853-.046,179.883,2.313,268.428-1.812,101.65-4.7,200.955-19.181,302.228-25.233,84.987-5.073,163.527-.355,245.5,12.389,70.181,10.917,138.156,21.849,211.774,21.873,72.79,0,137.54-14.533,206.62-25.142,78.69-12.081,151.26-8.565,228.15,6.029,78.26,14.849,150.12,32.381,234.66,31.995,105.36-.524,206.53-20.453,312.19-20.1"
          transform="translate(2566 620)" fill="none" stroke="currentColor" stroke-miterlimit="10" stroke-width="1" />
        <path id="Path_8" data-name="Path 8"
          d="M0,333.319c86.606-.069,176.268,2.552,262.358-2.521,106.31-6.26,209.328-23.546,315.262-31.348,86.173-6.345,160.973.44,241.62,17.416,66.538,14.009,131.891,29.189,204.3,29.667,76.53.509,145.53-19.451,216.31-32.889,81.74-15.52,151.53-12.22,230.51,6.692,75.22,18.01,145.36,41.131,230.26,39.836,104.99-1.6,203.5-26.113,308.9-26.853"
          transform="translate(2566 620)" fill="none" stroke="currentColor" stroke-miterlimit="10" stroke-width="1" />
        <path id="Path_9" data-name="Path 9"
          d="M0,323.05c84.387-.092,172.654,2.7,256.413-3.215,110.86-7.825,217.6-27.824,327.947-37.369,87.918-7.609,158.475,1.1,237.42,22.551,62.435,16.961,125.15,36.552,196.56,37.585,80.27,1.149,154.8-24.779,227.22-40.715,37.93-8.3,77.91-16.083,119.26-14.294,40.47,1.758,78.79,11.171,114.18,21.587,71.34,20.948,140.84,49.782,225.73,47.577,104.52-2.722,199.74-31.795,304.83-33.684"
          transform="translate(2566 620)" fill="none" stroke="currentColor" stroke-miterlimit="10" stroke-width="1" />
        <path id="Path_10" data-name="Path 10"
          d="M.069,312.958c82.336-.116,169.165,2.744,250.636-3.855,115.088-9.3,225.167-31.88,339.6-43.074,89.927-8.8,156.409,1.673,233.219,27.539,58.235,19.613,118.326,43.583,189.1,45.21,83.73,1.919,164.67-30.107,238.46-48.232,38.66-9.5,81.29-19.514,124.47-17.309,40.47,2.067,78.39,13.354,112.23,25.057,67.47,23.345,136.26,58,221.35,54.908,104.08-3.793,195.63-37.284,300.45-40.244"
          transform="translate(2566 620)" fill="none" stroke="currentColor" stroke-miterlimit="10" stroke-width="1" />
        <path id="Path_11" data-name="Path 11"
          d="M.084,303.043c80.368-.139,165.914,2.721,245.3-4.364,118.842-10.616,231.88-35.58,349.857-48.27,44.922-4.827,87.5-7.617,131.5.848,35.851,6.9,67.389,19.012,97.812,31.255,54.425,21.888,111.879,49.959,182.482,52.156,86.8,2.706,174.24-35.125,249.24-55.1,39.32-10.478,84.58-22.613,129.4-20.045,40.65,2.313,78.07,15.319,110.46,28.163,63.88,25.319,131.85,65.394,217.41,61.516,103.7-4.711,191.45-42.349,296.08-46.2"
          transform="translate(2566 620)" fill="none" stroke="currentColor" stroke-miterlimit="10" stroke-width="1" />
        <path id="Path_12" data-name="Path 12"
          d="M.1,293.29c78.679-.146,163.067,2.7,240.63-4.71,121.856-11.642,237.043-38.749,357.992-52.634,45.076-5.174,87.527-8.381,131.305,1.225,35.516,7.841,65.785,21.295,94.728,34.74,51.229,23.769,106.283,55.364,177.227,58.024,45.34,1.7,90.94-11.364,130.09-22.428,43.45-12.274,85.21-26.259,128.64-38.548,39.92-11.287,87.36-25.134,133.69-22.243,40.95,2.552,77.78,16.884,109.01,30.685,60.95,26.984,127.63,71.592,214.02,67.074,103.51-5.4,187.59-46.782,292.22-51.215"
          transform="translate(2566 620)" fill="none" stroke="currentColor" stroke-miterlimit="10" stroke-width="1" />
        <path id="Path_13" data-name="Path 13"
          d="M.113,283.715c77.27-.147,160.764,2.706,236.833-4.842,124.006-12.3,240.532-41.255,363.506-56,44.866-5.4,87.638-8.843,130.969,1.449,35.474,8.427,64.836,23.037,92.732,37.408,49.095,25.28,102.069,59.495,173.882,62.448,46.585,1.9,93.505-12.258,133.275-23.961,44.89-13.223,87.92-28.272,132.81-41.51,40.47-11.942,89.31-26.876,136.89-23.83,41.37,2.652,77.57,17.879,107.95,32.473,59.08,28.364,123.72,76.172,211.48,71.353,103.52-5.682,184.39-50.39,289.22-54.954"
          transform="translate(2566 620)" fill="none" stroke="currentColor" stroke-miterlimit="10" stroke-width="1" />
        <path id="Path_14" data-name="Path 14"
          d="M.14,274.309c76.181-.123,159.159,2.784,234.113-4.7,125.052-12.49,241.9-42.967,365.821-58.116,44.252-5.4,87.82-8.913,130.537,1.449,35.767,8.674,64.724,24.07,92.1,39.05,48.313,26.475,99.724,62.063,173.045,64.931,47.61,1.866,94.66-12.436,134.99-24.671,45.84-13.878,89.66-29.7,135.49-43.591,40.99-12.428,90.04-27.6,138.59-24.578,41.86,2.606,77.45,18.11,107.45,33.329,58.62,29.721,120.17,78.739,209.99,73.967,103.78-5.513,182.21-52.974,287.47-57.052"
          transform="translate(2566 620)" fill="none" stroke="currentColor" stroke-miterlimit="10" stroke-width="1" />
        <path id="Path_15" data-name="Path 15"
          d="M.154,265.057c75.9-.262,158.615,3.007,233.248-4.625,124.2-12.729,239.555-44.115,362.5-59.62,44.126-5.558,87.666-8.889,130.355,1.35,36.284,8.719,65.813,24.3,93.6,39.466,49.206,26.86,101.161,62.9,175.445,66.264,47.95,2.167,94.71-11.957,135.23-24.385,45.91-14.094,89.64-30.222,135.54-44.323,41.18-12.66,89.99-27.624,138.9-24.386,42.14,2.791,77.52,18.326,107.58,33.714,58.85,30.138,119.23,78.508,209.76,74.013,104.08-5.15,181.7-53.906,287.39-57.468"
          transform="translate(2566 620)" fill="none" stroke="currentColor" stroke-miterlimit="10" stroke-width="1" />
        <path id="Path_16" data-name="Path 16"
          d="M.168,256.014c76.223-.478,158.685,3.646,233.582-4.518,122-13.3,234.755-45.2,355.453-61.254,44.657-5.944,87.053-9.036,130.356,1.272,36.939,8.782,67.515,24.2,96.318,39.235,50.839,26.568,104.985,62.973,179.269,67.56,47.654,2.945,94.584-11.217,134.754-23.638,45.35-14.024,88.43-30.168,133.77-44.207,41.1-12.729,89.9-27.578,138.74-23.731,42.02,3.308,77.92,19.066,108.39,34.285,59.16,29.529,121.29,76.99,210.73,72.626,104.33-5.1,182.2-54.13,288.14-57.63"
          transform="translate(2566 620)" fill="none" stroke="currentColor" stroke-miterlimit="10" stroke-width="1" />
        <path id="Path_17" data-name="Path 17"
          d="M.2,247.125c76.656-.571,158.894,4.7,234.252-3.94,119.513-13.707,229.326-46.027,347.485-62.448,45.033-6.276,86.438-9.075,130.23,1.1,37.511,8.72,69.315,23.738,99.193,38.657,52.542,26.213,109.186,62.487,183.4,68.184,47.226,3.632,93.8-10.238,133.6-22.6,44.58-13.877,86.76-29.921,131.32-43.791,40.97-12.752,89.31-27.176,137.93-22.782,42.06,3.809,78.59,19.637,109.76,34.694,59.93,28.911,124.1,75.185,212.86,70.883,104.79-5.073,183.09-54.423,289.5-57.908"
          transform="translate(2566 620)" fill="none" stroke="currentColor" stroke-miterlimit="10" stroke-width="1" />
        <path id="Path_18" data-name="Path 18"
          d="M.223,238.4c77.186-.547,159.382,6.122,235.271-2.96,116.777-13.963,223.4-46.613,338.776-63.32,45.215-6.546,85.839-9.005,129.993.879,38.181,8.542,71.172,23.129,102.208,37.777,54.732,25.743,113.358,61.493,187.781,68.239,46.668,4.225,92.408-9.044,131.818-21.325,43.61-13.6,84.71-29.505,128.29-43.12,40.82-12.76,88.23-26.468,136.55-21.588,42.26,4.279,79.55,20.046,111.65,34.894,61.13,28.272,127.59,73.127,215.87,68.848,105.43-5.111,184.33-54.793,291.38-58.3"
          transform="translate(2566 620)" fill="none" stroke="currentColor" stroke-miterlimit="10" stroke-width="1" />
        <path id="Path_19" data-name="Path 19"
          d="M.237,229.855c77.814-.432,159.983,7.841,236.555-1.635,113.846-14.085,217.073-47.029,329.482-63.828,45.187-6.769,85.253-8.874,129.63.578,38.865,8.28,73.014,22.358,105.32,36.559C858.44,226.686,918.852,261.58,993.555,269.3c90.155,9.321,181.245-39.189,254.3-62.056,40.67-12.736,86.79-25.5,134.7-20.153,42.59,4.757,80.66,20.369,113.86,34.994,62.68,27.609,131.62,70.86,219.68,66.558,106.21-5.181,185.87-55.224,293.69-58.786"
          transform="translate(2566 620)" fill="none" stroke="currentColor" stroke-miterlimit="10" stroke-width="1" />
        <path id="Path_20" data-name="Path 20"
          d="M.265,221.482c78.5-.239,160.68,9.807,238.048,0,110.79-14.093,210.458-47.191,319.742-64.044,45.033-6.939,84.708-8.666,129.211.239,39.577,7.933,74.911,21.387,108.487,35.141,59.7,24.439,121.913,58.169,196.992,66.843C1081.53,269.9,1168.71,222.793,1240.41,200.3c39.64-12.42,85.86-24.941,132.46-18.542,43.26,5.937,81.37,20.331,116.46,34.979,64.48,26.907,136.07,68.408,224.13,64.06,107.12-5.281,187.63-55.7,296.35-59.365"
          transform="translate(2566 620)" fill="none" stroke="currentColor" stroke-miterlimit="10" stroke-width="1" />
        <path id="Path_21" data-name="Path 21"
          d="M.293,213.272c79.238,0,161.5,11.973,239.736,1.8,107.637-13.993,203.649-47.23,309.708-63.991,184.209-29.135,280.3,78.423,442.115,99.008,87.218,11.11,169.988-34.3,240.388-56.342,39.47-12.336,83.9-23.569,129.91-16.808,43.81,6.438,82.81,20.516,119.31,34.887,66.49,26.213,140.86,65.825,229.1,61.408,108.11-5.4,189.57-56.212,299.3-59.966"
          transform="translate(2566 620)" fill="none" stroke="currentColor" stroke-miterlimit="10" stroke-width="1" />
        <path id="Path_22" data-name="Path 22"
          d="M.321,205.238c80.005.324,162.41,14.263,241.578,3.793,104.427-13.808,196.769-47.122,299.521-63.736,180.4-29.158,290.268,73.242,449.469,95.3,85.711,11.888,163.511-31.51,232.631-53.128,39.3-12.289,81.79-22.042,127.15-14.972,44.39,6.939,84.38,20.662,122.34,34.732,68.63,25.442,145.83,63.15,234.45,58.632,109.17-5.558,191.65-56.743,302.44-60.621"
          transform="translate(2566 620)" fill="none" stroke="currentColor" stroke-miterlimit="10" stroke-width="1" />
        <path id="Path_23" data-name="Path 23"
          d="M.349,197.374c80.8.655,163.373,16.63,243.532,5.9,101.231-13.554,189.791-46.906,289.361-63.3,176.575-29.073,300.037,67.73,456.656,91.26,84.182,12.644,156.692-28.618,224.592-49.812,39.16-12.22,79.55-20.408,124.2-13.107,45.01,7.394,86.04,20.816,125.5,34.54,70.84,24.671,150.89,60.413,239.95,55.795,110.25-5.728,193.81-57.3,305.7-61.308"
          transform="translate(2566 620)" fill="none" stroke="currentColor" stroke-miterlimit="10" stroke-width="1" />
        <path id="Path_24" data-name="Path 24"
          d="M.377,189.68c81.582.994,164.392,19.012,245.611,8.056C344.094,184.491,429,151.123,525.358,135.01c172.821-28.9,309.484,62.086,463.536,87.027,82.656,13.384,149.726-25.681,216.476-46.466,38.99-12.143,77.41-18.719,121.32-11.156,45.64,7.864,87.74,20.947,128.68,34.331,73.06,23.9,155.93,57.669,245.55,52.935,111.4-5.89,196-57.823,309.01-62"
          transform="translate(2566 620)" fill="none" stroke="currentColor" stroke-miterlimit="10" stroke-width="1" />
        <path id="Path_25" data-name="Path 25"
          d="M.4,182.163c82.336,1.326,165.425,21.34,247.579,10.2,95.091-12.9,176.408-46.258,269.7-62.056,169.4-28.68,318.737,56.389,470.29,82.726,81.148,14.108,142.758-22.759,208.418-43.175,38.83-12.065,75.36-17.031,118.44-9.251,46.26,8.341,89.43,21.124,131.84,34.138,75.2,23.083,160.83,54.947,251.06,50.113,112.52-6.052,198.17-58.408,312.28-62.68"
          transform="translate(2566 620)" fill="none" stroke="currentColor" stroke-miterlimit="10" stroke-width="1" />
        <path id="Path_26" data-name="Path 26"
          d="M.433,174.807c83.159,1.642,166.443,23.577,249.6,12.282,92.23-12.528,170.114-45.865,260.5-61.323,166.151-28.418,327.431,50.745,476.445,78.477,79.8,14.849,135.9-19.976,200.648-39.983,38.7-11.95,73.32-15.419,115.67-7.416,46.87,8.82,91.08,21.348,134.87,33.984,77.27,22.289,165.53,52.28,256.4,47.322,113.58-6.206,200.23-58.94,315.38-63.343"
          transform="translate(2566 620)" fill="none" stroke="currentColor" stroke-miterlimit="10" stroke-width="1" />
        <path id="Path_27" data-name="Path 27"
          d="M.46,167.63c83.941,1.912,167.463,25.65,251.557,14.24,89.592-12.151,164.253-45.488,251.933-60.583,85.057-14.649,175.543,1.889,254.99,19.559,76.614,17.047,149.446,39.405,227.2,54.863,78.8,15.666,129.046-17.517,193.306-37.007,85.34-25.866,172.74,6.939,250.85,28.21,79.14,21.525,169.89,49.727,261.35,44.662,114.59-6.337,202.18-59.442,318.36-63.952"
          transform="translate(2566 620)" fill="none" stroke="currentColor" stroke-miterlimit="10" stroke-width="1" />
        <path id="Path_28" data-name="Path 28"
          d="M.489,160.614c84.722,2.135,168.258,27.516,253.426,16.021,87.206-11.781,158.894-45.094,244.216-59.859,84.276-14.6,177.148,1.257,256.971,17.44,78.163,15.851,152.559,36.783,230.3,53.251s123.155-15.088,186.595-34.3c83.4-25.249,174.44,10.023,251.19,29.8,80.8,20.817,173.86,47.307,265.82,42.172,115.48-6.453,203.94-59.912,320.97-64.522"
          transform="translate(2566 620)" fill="none" stroke="currentColor" stroke-miterlimit="10" stroke-width="1" />
        <path id="Path_29" data-name="Path 29"
          d="M.517,153.776c85.518,2.312,168.983,29.111,255.143,17.547C340.786,159.9,409.837,126.607,492.9,112.128c83.633-14.533,178.626.678,258.813,15.519,79.545,14.734,155.433,34.409,233.052,51.887,36.617,8.241,63.457,8.581,98.857-2.051,28.78-8.643,53.12-21.194,81.85-29.9,38.33-11.627,68.87-11.3,109.02-2.66,48.24,10.4,95.24,22.358,142.58,33.977,82.15,20.106,177.23,45.055,269.61,39.874,116.28-6.522,205.48-60.336,323.34-65"
          transform="translate(2566 620)" fill="none" stroke="currentColor" stroke-miterlimit="10" stroke-width="1" />
        <path id="Path_30" data-name="Path 30"
          d="M.544,147.1c86.313,2.313,169.528,30.391,256.692,18.788,83.439-11.109,150.13-44.531,231.517-58.64,83.2-14.425,179.939.154,260.446,13.878S907,153.506,984.372,172.009c35.758,8.55,61.888,9.76,96.988-.817,27.83-8.389,51.05-20.77,78.81-29.22,38.12-11.611,68.18-10.377,107.63-1.45,48.48,10.971,96.21,22.906,144.44,34.2,83.19,19.474,180.12,43.035,272.64,37.839,116.92-6.561,206.72-60.7,325.16-65.394"
          transform="translate(2566 620)" fill="none" stroke="currentColor" stroke-miterlimit="10" stroke-width="1" />
        <path id="Path_31" data-name="Path 31"
          d="M.572,140.607c87.122,2.251,169.862,31.3,258,19.668,82.2-10.863,146.809-44.539,227.066-58.232,83.089-14.193,180.873-.277,261.883,12.467,81.666,12.836,159.633,30.715,236.68,50.236,35.026,8.866,60.876,10.732,95.706.154,27.07-8.21,49.36-20.515,76.35-28.8,37.94-11.649,67.97-9.761,106.82-.493,48.55,11.564,96.84,23.53,145.81,34.585,83.73,18.912,182.28,41.255,274.73,36.1,117.38-6.553,207.62-61,326.56-65.679"
          transform="translate(2566 620)" fill="none" stroke="currentColor" stroke-miterlimit="10" stroke-width="1" />
        <path id="Path_32" data-name="Path 32"
          d="M.6,134.278c87.918,2.043,169.946,31.795,259.064,20.13,81.345-10.647,144.562-44.47,223.855-58,82.824-14.124,181.892-.509,263.112,11.441,82.5,12.143,160.819,29.536,237.5,50.113,34.456,9.252,60.436,11.488,95.086.84,26.52-8.149,48.11-20.461,74.58-28.687,37.81-11.75,68.26-9.53,106.65.162,48.45,12.227,97.1,24.277,146.61,35.148,83.98,18.434,183.68,39.774,275.76,34.694,117.65-6.484,208.11-61.223,327.33-65.841"
          transform="translate(2566 620)" fill="none" stroke="currentColor" stroke-miterlimit="10" stroke-width="1" />
        <path id="Path_33" data-name="Path 33"
          d="M.642,128.11c88.364,1.835,169.821,31.91,259.483,20.138,81.066-10.64,143.906-44.431,222.948-57.885,82.741-14.078,182.255-.185,263.5,11.511,82.8,11.919,160.862,29.181,237.644,49.851,34.331,9.251,60.681,11.179,95.091.6,26.33-8.1,47.78-20.3,74.12-28.418,37.67-11.611,68.68-9.452,106.71.517,48.24,12.644,96.95,24.786,146.67,35.549,83.58,18.1,184.57,39.2,275.94,33.923,117.49-6.769,208.53-60.583,327.44-65.764"
          transform="translate(2566 620)" fill="none" stroke="currentColor" stroke-miterlimit="10" stroke-width="1" />
        <path id="Path_34" data-name="Path 34"
          d="M.67,122.042c88.56,1.743,169.779,32.019,259.65,20.107,80.941-10.732,144.1-44.238,223.2-57.607,82.74-13.985,182.032.517,263.153,12.289,82.531,11.981,160.262,29.212,237.574,48.9,73.183,18.635,109.453-10.022,169.723-27.893,37.68-11.172,68.88-9.136,106.56.871,48.04,12.759,96.66,24.871,146.36,35.511C1489.98,172,1592.29,193.2,1683,187.482c116.98-7.386,209.14-59.01,327.26-65.324"
          transform="translate(2566 620)" fill="none" stroke="currentColor" stroke-miterlimit="10" stroke-width="1" />
        <path id="Path_35" data-name="Path 35"
          d="M.7,116.068c88.825,1.681,169.849,32.18,260,20.169,80.94-10.794,144.352-43.946,223.492-57.191,82.741-13.877,181.739,1.18,262.735,12.991,82.21,11.988,159.647,29.142,237.406,47.838,72.569,17.455,110.139-10.693,170.449-27.754,37.68-10.686,69.16-8.712,106.51,1.31,47.81,12.829,96.29,24.849,145.98,35.3,82.76,17.416,186.08,38.394,276.03,32.288,116.41-7.9,209.7-57.275,326.95-64.592"
          transform="translate(2566 620)" fill="none" stroke="currentColor" stroke-miterlimit="10" stroke-width="1" />
        <path id="Path_36" data-name="Path 36"
          d="M.726,110.2c89.132,1.634,170.03,32.38,260.516,20.315,80.842-10.778,144.632-43.553,223.827-56.659,82.741-13.646,181.418,1.789,262.26,13.608,81.82,11.95,159.09,28.973,237.127,46.636,72.054,16.29,110.9-11.233,171.374-27.5,37.77-10.153,69.49-8.18,106.56,1.835,47.54,12.852,95.93,24.733,145.54,34.94,82.54,17,186.49,37.462,275.84,31.04,115.82-8.319,210.19-55.379,326.55-63.6"
          transform="translate(2566 620)" fill="none" stroke="currentColor" stroke-miterlimit="10" stroke-width="1" />
        <path id="Path_37" data-name="Path 37"
          d="M.753,104.434c89.509,1.619,170.254,32.6,261.2,20.531C342.726,114.248,406.906,81.844,486.171,69c82.713-13.407,180.887,2.375,261.7,14.155,81.373,11.873,158.406,28.718,236.764,45.317,71.5,15.15,111.723-11.649,172.473-27.038,37.9-9.606,69.87-7.563,106.7,2.421q70.755,19.377,145.01,34.432c82.47,16.53,186.72,36.236,275.54,29.52,115.08-8.658,210.6-53.343,325.94-62.34"
          transform="translate(2566 620)" fill="none" stroke="currentColor" stroke-miterlimit="10" stroke-width="1" />
        <path id="Path_38" data-name="Path 38"
          d="M.8,98.774c89.913,1.619,170.63,32.874,262.023,20.817,80.7-10.632,145.315-42.6,224.678-55.187C570.182,51.3,667.938,67.326,748.6,79.053c80.941,11.75,157.764,28.364,236.3,43.884,70.977,14.031,112.647-11.974,173.757-26.429,38.08-9.013,70.29-6.854,106.91,3.084q70.335,19.247,144.44,33.776c82.51,16.013,186.74,34.647,275.1,27.755,114.33-8.92,210.94-51.162,325.28-60.861"
          transform="translate(2566 620)" fill="none" stroke="currentColor" stroke-miterlimit="10" stroke-width="1" />
        <path id="Path_39" data-name="Path 39"
          d="M.824,93.239C91.2,94.865,171.9,126.39,263.809,114.425c80.648-10.5,145.721-42.01,225.112-54.292C571.564,47.35,668.8,63.572,749.4,75.2c80.34,11.565,157.135,27.917,235.759,42.334,70.476,12.929,113.676-12.189,175.206-25.666,38.29-8.388,70.75-6.068,107.22,3.855q69.855,19.063,143.74,33c82.65,15.42,186.56,32.813,274.54,25.759,113.54-9.1,211.2-48.849,324.5-59.142"
          transform="translate(2566 620)" fill="none" stroke="currentColor" stroke-miterlimit="10" stroke-width="1" />
        <path id="Path_40" data-name="Path 40"
          d="M.852,87.811C91.728,89.476,172.5,121.3,264.94,109.4c80.591-10.315,146.139-41.324,225.614-53.274,82.586-12.413,179.3,3.924,259.706,15.419,79.782,11.41,156.493,27.393,235.145,40.7,69.985,11.835,114.8-12.335,176.795-24.779,38.53-7.71,71.24-5.212,107.6,4.626,46.26,12.558,94.07,23.289,143.08,32.111,82.92,14.826,186.25,30.746,273.9,23.568,112.72-9.251,211.38-46.42,323.62-57.244"
          transform="translate(2566 620)" fill="none" stroke="currentColor" stroke-miterlimit="10" stroke-width="1" />
        <path id="Path_41" data-name="Path 41"
          d="M.879,82.507c91.42,1.712,172.179,33.846,265.3,22.1,80.536-10.161,146.6-40.646,226.158-52.226,82.517-12,178.627,4.387,258.925,15.736,79.224,11.2,155.866,26.784,234.447,38.965,69.509,10.793,116.049-12.39,178.529-23.761,38.8-7.054,71.76-4.287,108.03,5.4,45.93,12.368,93.52,22.771,142.34,31.117,83.24,14.147,185.73,28.425,273.13,21.163,111.88-9.252,211.48-43.868,322.66-55.14"
          transform="translate(2566 620)" fill="none" stroke="currentColor" stroke-miterlimit="10" stroke-width="1" />
        <path id="Path_42" data-name="Path 42"
          d="M.908,77.334C92.9,79.107,173.743,111.55,267.452,99.97c80.577-9.922,147.158-39.882,226.814-51.061,82.433-11.565,177.873,4.819,258.171,16C831.075,75.869,907.661,91,986.159,102.051c69.041,9.722,117.391-12.382,180.381-22.628,39.08-6.353,72.28-3.315,108.52,6.322a1437.82,1437.82,0,0,0,141.56,30.014c83.56,13.423,185.02,25.943,272.22,18.6,111-9.306,211.5-41.224,321.62-52.881"
          transform="translate(2566 620)" fill="none" stroke="currentColor" stroke-miterlimit="10" stroke-width="1" />
        <path id="Path_43" data-name="Path 43"
          d="M.935,72.314c92.565,1.827,173.5,34.578,268.038,23.191,80.451-9.7,147.59-39.073,227.33-49.828,82.336-11.11,177.119,5.235,257.236,16.19,78.065,10.7,154.6,25.334,232.926,35.256,68.6,8.7,118.875-12.336,182.355-21.4,39.35-5.636,72.82-2.313,109.07,7.255A1332.433,1332.433,0,0,0,1418.62,111.8c84.1,12.643,184.3,23.206,271.37,15.874,110.13-9.252,211.42-38.487,320.49-50.476"
          transform="translate(2566 620)" fill="none" stroke="currentColor" stroke-miterlimit="10" stroke-width="1" />
        <path id="Path_44" data-name="Path 44"
          d="M.963,67.381c93.235,1.935,174.328,35,269.531,23.831,80.437-9.429,148.162-38.217,227.958-48.525C580.718,32.07,674.79,48.322,754.795,59.093,832.274,69.524,908.749,83.6,986.87,92.4c68.2,7.71,120.45-12.189,184.4-20.045,39.65-4.9,73.37-1.218,109.68,8.218a1238.2,1238.2,0,0,0,139.86,27.562c84.62,11.811,183.42,20.346,270.38,13.006,109.27-9.213,211.28-35.657,319.32-47.923"
          transform="translate(2566 620)" fill="none" stroke="currentColor" stroke-miterlimit="10" stroke-width="1" />
        <path id="Path_45" data-name="Path 45"
          d="M.991,62.609C94.9,64.644,176.128,98.027,272.126,87.1c80.368-9.152,148.637-37.33,228.573-47.168,82.154-10.115,175.5,6.021,255.38,16.553C833,66.625,909.377,80.11,987.247,87.781c67.853,6.684,122.123-12.012,186.563-18.7,39.93-4.14,73.88-.1,110.32,9.252a1152.556,1152.556,0,0,0,138.95,26.213c85.13,10.917,182.42,17.332,269.34,10.023,108.41-9.1,211.07-32.758,318.12-45.271"
          transform="translate(2566 620)" fill="none" stroke="currentColor" stroke-miterlimit="10" stroke-width="1" />
        <path id="Path_46" data-name="Path 46"
          d="M1.019,57.982c94.56,2.143,176,35.842,272.74,25.18C354.141,74.3,422.982,46.749,503.016,37.4c82.042-9.583,174.649,6.391,254.473,16.676,76.376,9.845,152.642,22.682,230.26,29.235,67.561,5.7,123.891-11.781,188.8-17.231,40.22-3.385,74.41,1.041,110.99,10.254a1074.983,1074.983,0,0,0,138.03,24.841c85.69,9.969,181.33,14.194,268.21,6.939,107.46-8.99,210.73-29.791,316.79-42.512"
          transform="translate(2566 620)" fill="none" stroke="currentColor" stroke-miterlimit="10" stroke-width="1" />
        <path id="Path_47" data-name="Path 47"
          d="M1.047,53.5c95.244,2.259,176.9,36.236,274.429,25.9C355.858,70.85,425.271,43.92,505.4,35.077c81.931-9.02,173.784,6.754,253.51,16.776,75.86,9.537,151.986,21.687,229.27,27.131,67.318,4.742,125.708-11.5,191.028-15.712,40.47-2.614,74.93,2.213,111.65,11.31a1005.64,1005.64,0,0,0,137.08,23.4c86.24,8.966,180.19,10.963,267.07,3.762,106.68-8.835,210.35-26.76,315.49-39.666"
          transform="translate(2566 620)" fill="none" stroke="currentColor" stroke-miterlimit="10" stroke-width="1" />
        <path id="Path_48" data-name="Path 48"
          d="M1.075,49.186c95.942,2.375,177.831,36.7,276.145,26.629C357.588,67.573,427.615,41.291,507.844,33c81.791-8.481,172.877,7.116,252.589,16.861,75.358,9.252,151.316,20.654,228.279,24.995,67.2,3.793,127.578-11.179,193.408-14.155,40.76-1.843,75.36,3.408,112.42,12.382A942.283,942.283,0,0,0,1430.66,95c196.77,17.955,389.59-12.336,580.03-36.236"
          transform="translate(2566 620)" fill="none" stroke="currentColor" stroke-miterlimit="10" stroke-width="1" />
        <path id="Path_49" data-name="Path 49"
          d="M1.1,45.007c96.654,2.506,178.78,37.13,277.9,27.377,80.368-7.91,151-33.537,231.321-41.347C591.98,23.1,682.3,38.5,761.843,47.96c74.925,8.936,150.66,19.6,227.274,22.813,67.183,2.845,129.463-10.794,195.773-12.567,41.01-1.079,75.89,4.626,113.17,13.469,43.04,10.277,88.74,16.83,135.14,20.454,191.76,14.98,391.76-12.829,577.45-36.567"
          transform="translate(2566 620)" fill="none" stroke="currentColor" stroke-miterlimit="10" stroke-width="1" />
        <path id="Path_50" data-name="Path 50"
          d="M1.13,41C98.5,43.634,180.873,78.559,280.806,69.13c80.382-7.61,151.6-32.55,232.019-39.836,81.513-7.378,171.049,7.818,250.51,16.961,74.521,8.6,149.991,18.5,226.256,20.67C1056.9,68.837,1120.94,56.486,1187.75,55.97c41.24-.316,76.35,5.836,113.92,14.571,42.76,9.938,88.16,15.928,134.17,18.9,87.65,5.667,176.53.84,263.46-6.091,104.3-8.319,208.75-17.447,311.38-30.839"
          transform="translate(2566 620)" fill="none" stroke="currentColor" stroke-miterlimit="10" stroke-width="1" />
        <path id="Path_51" data-name="Path 51"
          d="M1.159,37.151C98.4,39.872,180.664,74.859,280.5,66.24,360.561,59.3,431.914,35.331,511.71,28.061c80.661-7.347,168.4,7.232,247.16,16.036,76.14,8.481,153.27,17.956,231.21,19.143,69.19,1.056,136.61-10.616,205.64-9.252,41.67.825,76.41,8.35,114.6,16.707C1350,79.377,1391.89,84.35,1434.26,86.7c90.18,5,179.62-2.375,268.72-9.336,102.85-8.034,206.62-14.217,307.77-27.647"
          transform="translate(2566 620)" fill="none" stroke="currentColor" stroke-miterlimit="10" stroke-width="1" />
        <path id="Path_52" data-name="Path 52"
          d="M1.172,33.473c97.91,2.853,180.511,38.132,281.086,29.844,80.075-6.6,152-29.937,231.922-36.675,80.493-6.754,167.532,7.617,246.183,16.136C836.14,51,912.977,59.74,990.512,59.74c69.6,0,138.508-10.123,208.118-7.54,41.72,1.542,76.75,9.5,115.24,17.678,39.41,8.373,81.02,12.821,123.03,14.579,90.47,3.785,178.36-5.952,267.45-12.721,102.18-7.764,205.94-11.071,306.37-24.671"
          transform="translate(2566 620)" fill="none" stroke="currentColor" stroke-miterlimit="10" stroke-width="1" />
        <path id="Path_53" data-name="Path 53"
          d="M1.2,29.973C99.85,32.957,182.618,68.522,284.044,60.558c80.1-6.291,152.586-28.973,232.619-35.187,80.327-6.253,166.681,8.018,245.291,16.26,75.358,7.918,151.9,15.874,229.033,14.749,70.093-1.025,140.363-9.629,210.553-5.844,41.78,2.259,77.09,10.639,115.83,18.642,39.08,8.072,80.49,12,122.11,13.16,90.71,2.552,177.15-9.5,266.21-16.083,101.54-7.509,205.14-7.926,304.99-21.7"
          transform="translate(2566 620)" fill="none" stroke="currentColor" stroke-miterlimit="10" stroke-width="1" />
        <path id="Path_54" data-name="Path 54"
          d="M1.229,26.65c99.333,3.084,182.45,38.95,284.588,31.317,80.117-5.991,153.158-28.056,233.317-33.715S684.95,32.671,763.35,40.628C838.527,48.26,914.708,55.469,991.42,53.21c70.71-2.082,142.18-9.144,212.96-4.171,41.86,2.937,77.42,11.773,116.52,19.59s79.99,11.179,121.22,11.765c90.71,1.3,176-13.006,264.96-19.405,100.96-7.263,204.48-4.8,303.66-18.765"
          transform="translate(2566 620)" fill="none" stroke="currentColor" stroke-miterlimit="10" stroke-width="1" />
        <path id="Path_55" data-name="Path 55"
          d="M1.242,23.5c100.017,3.238,183.427,39.319,286.291,32.042,80.158-5.7,153.73-27.092,234-32.273C601.469,18.116,686.6,32.1,764.856,39.788,839.81,47.143,915.573,53.6,991.907,50.227c71.413-3.153,143.933-8.681,215.343-2.544,41.74,3.593,77.72,12.891,117.1,20.531,38.65,7.494,79.54,10.377,120.32,10.4,90.71.062,174.91-16.437,263.75-22.667,100.48-7.047,203.75-1.7,302.31-15.9"
          transform="translate(2566 620)" fill="none" stroke="currentColor" stroke-miterlimit="10" stroke-width="1" />
        <path id="Path_56" data-name="Path 56"
          d="M1.256,20.552C101.943,23.9,185.6,60.28,289.208,53.28c80.2-5.4,154.3-26.213,234.671-30.839,79.851-4.626,164.127,9.252,242.4,16.668,74.8,7.062,150.186,12.79,226.075,8.326,72.175-4.24,145.635-8.234,217.705-.956,41.72,4.2,78.01,13.97,117.68,21.433,38.47,7.232,79.01,9.6,119.41,9.074,90.57-1.164,173.9-19.775,262.61-25.858,99.91-6.846,202.91,1.372,301.02-13.106"
          transform="translate(2566 620)" fill="none" stroke="currentColor" stroke-miterlimit="10" stroke-width="1" />
        <path id="Path_57" data-name="Path 57"
          d="M1.284,17.784c101.315,3.462,185.269,40.09,289.557,33.4,80.242-5.158,154.9-25.3,235.312-29.49,79.684-4.148,163.276,9.706,241.509,16.846,74.66,6.792,149.669,11.8,225.125,6.268,72.983-5.351,147.353-7.833,219.923.563,41.68,4.819,78.27,15.049,118.3,22.358,38.23,6.939,78.56,8.851,118.61,7.795,90.34-2.367,172.95-23,261.51-28.95,99.43-6.684,202.13,4.387,299.76-10.377"
          transform="translate(2566 620)" fill="none" stroke="currentColor" stroke-miterlimit="10" stroke-width="1" />
        <path id="Path_58" data-name="Path 58"
          d="M1.3,15.208c101.873,3.57,186.134,40.46,291.091,34.038,80.285-4.919,155.364-24.455,235.955-28.179,79.545-3.67,162.522,10.161,240.629,17.054,74.563,6.592,149.2,10.848,224.2,4.264,73.832-6.476,148.872-7.478,222.072,2,41.6,5.4,78.54,16.09,118.83,23.229,38.04,6.738,78.14,8.134,117.78,6.576,90.01-3.539,172.05-26.074,260.44-31.949,99.08-6.561,201.36,7.347,298.56-7.771"
          transform="translate(2566 620)" fill="none" stroke="currentColor" stroke-miterlimit="10" stroke-width="1" />
        <path id="Path_59" data-name="Path 59"
          d="M1.312,12.842c102.514,3.654,187,40.792,292.542,34.624,80.354-4.687,155.894-23.646,236.569-26.915,79.419-3.215,161.755,10.616,239.792,17.293,74.493,6.376,148.763,9.922,223.353,2.313S1143.94,33,1217.7,43.527c41.51,5.929,78.81,16.961,119.32,24.07,37.68,6.623,77.84,7.455,116.99,5.4,89.64-4.626,171.23-28.981,259.44-34.778,98.65-6.484,200.63,10.238,297.41-5.289"
          transform="translate(2566 620)" fill="none" stroke="currentColor" stroke-miterlimit="10" stroke-width="1" />
        <path id="Path_60" data-name="Path 60"
          d="M1.4,10.637c103.073,3.731,187.739,41.116,293.91,35.187,80.326-4.464,156.312-22.852,237.085-25.7,79.238-2.791,161.043,11.087,239,17.57,74.451,6.168,148.371,9.043,222.529.432a841.249,841.249,0,0,1,226.073,4.626c41.42,6.43,79.04,17.879,119.79,24.887,37.53,6.453,77.48,6.823,116.22,4.348,42.27-2.706,83.48-8.9,124.06-15.782,43.8-7.409,88.86-18.712,134.48-21.7,98.31-6.453,199.95,13.045,296.33-2.945"
          transform="translate(2566 620)" fill="none" stroke="currentColor" stroke-miterlimit="10" stroke-width="1" />
        <path id="Path_61" data-name="Path 61"
          d="M1.4,8.709C104.971,12.5,189.791,50.126,296.576,44.4c80.4-4.317,156.787-22.2,237.657-24.617,79.112-2.4,160.331,11.565,238.215,17.886,74.451,6.029,148.079,8.226,221.8-1.357,76.378-9.93,153.1-6.777,227.948,5.79,41.23,6.939,79.18,18.735,120.14,25.642,37.37,6.3,77.14,6.253,115.5,3.354,42.19-3.176,83.16-9.915,123.51-17.231,43.47-7.879,88.6-19.768,134.2-22.782,98.01-6.468,199.33,15.766,295.34-.771"
          transform="translate(2566 620)" fill="none" stroke="currentColor" stroke-miterlimit="10" stroke-width="1" />
        <path id="Path_62" data-name="Path 62"
          d="M1.4,6.959c104.049,3.855,189.092,41.7,296.338,36.143,80.452-4.179,157.2-21.518,238.146-23.592,79-2.028,159.675,12.1,237.5,18.257,74.465,5.882,147.828,7.463,221.12-3.084C1071.76,23.6,1148.83,28,1224.21,41.53c41.08,7.37,79.3,19.529,120.47,26.359,37.22,6.168,76.75,5.736,114.84,2.459,42.09-3.624,82.85-10.871,122.99-18.588,43.17-8.3,88.36-20.716,133.97-23.777,97.68-6.553,198.76,18.388,294.45,1.257"
          transform="translate(2566 620)" fill="none" stroke="currentColor" stroke-miterlimit="10" stroke-width="1" />
        <path id="Path_63" data-name="Path 63"
          d="M1.4,5.425C105.878,9.28,191.061,47.389,298.767,41.962,379.316,37.9,456.461,21.037,537.484,19.3c78.917-1.7,159.09,12.636,236.834,18.673,74.493,5.774,147.646,6.769,220.492-4.68,78.05-12.266,155.32-6.715,231.22,7.71,40.95,7.794,79.42,20.269,120.76,27.038,37.09,6.068,76.49,5.3,114.21,1.673,42.03-4.04,82.57-11.75,122.52-19.837,42.94-8.7,88.16-21.541,133.82-24.671,97.49-6.692,198.32,20.893,293.59,3.084"
          transform="translate(2566 620)" fill="none" stroke="currentColor" stroke-miterlimit="10" stroke-width="1" />
        <path id="Path_64" data-name="Path 64"
          d="M1.4,4.115c104.887,3.855,190.153,42.2,298.279,36.86C380.237,37,457.731,20.583,538.824,19.118c78.833-1.4,158.476,13.191,236.22,19.143,74.535,5.705,147.548,6.168,219.976-6.168,78.86-13.438,156.17-6.838,232.63,8.481,40.77,8.172,79.46,20.932,120.95,27.655,36.98,6,76.18,4.934,113.64,1,41.98-4.418,82.34-12.544,122.12-20.97,42.75-9.059,87.92-22.227,133.71-25.442,97.28-6.9,197.98,23.283,292.87,4.688"
          transform="translate(2566 620)" fill="none" stroke="currentColor" stroke-miterlimit="10" stroke-width="1" />
        <path id="Path_65" data-name="Path 65"
          d="M1.4,3.02c104.37,3.855,189.358,42.2,296.855,37.23C383.2,36.326,465.308,18.6,551.021,18.963c73.279.308,146.809,13.608,219.194,19.328,76.907,6.075,150.521,5.906,225-7.1C1077.8,16.8,1155.18,24.368,1234.78,41.476c35.69,7.663,69.68,18.118,105.63,25.3,38.04,7.594,79.81,6.854,118.95,2.637,44.42-4.78,86.95-13.877,128.84-23.129,42.23-9.36,87.12-22.536,132.66-25.619,96.29-6.484,196.43,25.527,290.07,6.222"
          transform="translate(2566 620)" fill="none" stroke="currentColor" stroke-miterlimit="10" stroke-width="1" />
        <path id="Path_66" data-name="Path 66"
          d="M1.4,2.156c104.664,3.8,189.651,42.4,297.441,37.423C383.81,35.647,466.3,18.339,551.984,18.917c73.223.5,146.376,14.17,218.72,19.9,76.963,6.091,150.563,5.489,224.679-8.365,83.427-15.6,160.4-7.155,240.657,10.794,35.52,7.941,69.61,18.488,105.65,25.673,37.96,7.6,79.55,6.707,118.47,2.251,44.39-5.081,86.75-14.571,128.51-24.07,42.18-9.591,87.06-22.913,132.7-26.151,96.11-6.769,196.37,27.639,289.57,7.4"
          transform="translate(2566 620)" fill="none" stroke="currentColor" stroke-miterlimit="10" stroke-width="1" />
        <path id="Path_67" data-name="Path 67"
          d="M1.4,1.54c104.873,3.739,189.79,42.573,297.887,37.515C384.27,35.077,466.941,18.139,552.738,18.9c73.2.648,146,14.756,218.315,20.531,77.005,6.168,150.716,5.189,224.357-9.5,84.23-16.792,160.6-7.633,241.54,11.071,35.43,8.18,69.61,18.835,105.68,26.105,37.93,7.64,79.15,6.677,118.05,2.012,89.85-10.794,170.36-44.585,261.08-51.4,95.95-7.209,196.47,29.52,289.18,8.265"
          transform="translate(2566 620)" fill="none" stroke="currentColor" stroke-miterlimit="10" stroke-width="1" />
        <path id="Path_68" data-name="Path 68"
          d="M1.4,1.147c105.04,3.662,189.93,42.727,298.152,37.546,85-4.078,167.951-20.685,253.706-19.8,73.209.771,145.692,15.373,217.98,21.248,77.033,6.26,150.995,5,224.218-10.485,84.978-17.971,160.488-8.28,242.188,11.179,35.14,8.35,69.4,19.413,105.56,26.4,38.41,7.409,78.39,6.808,117.7,1.935,90.01-11.164,170.07-44.986,261.12-52.295,95.81-7.71,196.76,31.263,288.87,8.882"
          transform="translate(2566 620)" fill="none" stroke="currentColor" stroke-miterlimit="10" stroke-width="1" />
        <path id="Path_69" data-name="Path 69"
          d="M1.4,1C106.548,4.554,191.284,43.851,299.618,38.477c85-4.217,168.063-20.546,253.985-19.59,73.223.817,145.427,16.036,217.7,22.05C848.337,47.343,922.69,45.87,995.48,29.611c85.63-19.143,160.08-9.105,242.57,11.094,75.36,18.442,137.44,39.435,222.78,28.626,90.25-11.434,169.93-44.971,261.3-52.865,95.7-8.273,197.18,32.8,288.87,9.252"
          transform="translate(2566 620)" fill="none" stroke="currentColor" stroke-miterlimit="10" stroke-width="1" />
      </g>
    </svg>